<?xml version="1.0" encoding="UTF-8"?>
<svg width="1024px" height="278px" viewBox="0 0 1024 278" version="1.1" xmlns="http://www.w3.org/2000/svg" xmlns:xlink="http://www.w3.org/1999/xlink">
    <title>footer</title>
    <g id="Page-1" stroke="none" stroke-width="1" fill="none" fill-rule="evenodd">
        <g id="footer" transform="translate(0.000000, 1.000000)">
            <line x1="880" y1="239" x2="1024" y2="239" id="Path" stroke="#6E6C7E" stroke-width="1.49686698"></line>
            <line x1="0" y1="239" x2="670" y2="239" id="Path" stroke="#6E6C7E" stroke-width="1.5"></line>
            <g id="sassy" transform="translate(664.000000, 0.000000)">
                <g id="body" stroke="#6E6C7E" stroke-width="1.5">
                    <g id="Mask">
                        <path d="M111.495443,239 L200.557869,239 C216.40607,237.214753 224.218564,234.536881 223.99535,230.966387 C223.772136,227.395892 221.986423,219.585434 218.638211,207.535014 C194.754303,159.333333 176.004318,121.843137 162.388258,95.0644258 C148.772198,68.2857143 132.365962,37.3786181 113.169549,2.34313725 C112.499907,0.781045752 111.941871,0 111.495443,0 C111.049015,0 110.379373,0.781045752 109.486516,2.34313725 C98.7722394,21.980859 85.9374286,46.7511671 70.9820839,76.6540616 C56.0267392,106.556956 34.1517574,150.18394 5.35713841,207.535014 C1.7857128,219.139122 0,227.061158 0,231.30112 C0,235.541083 9.37499221,238.107376 28.1249766,239 L111.495443,239 Z"></path>
                    </g>
                </g>
                <g id="feet" transform="translate(69.000000, 239.000000)" stroke="#6E6C7E" stroke-width="1.5">
                    <path d="M0,0 L0,24.4653061 C0.0641727715,25.1292882 0.175818438,25.5823495 0.334936999,25.8244898 C0.49405556,26.0666301 0.828992559,26.2931607 1.339748,26.5040816 L26.1250859,36.6979592 C28.8045819,37.6040816 31.0374952,36.4714286 32.8238259,33.3 C34.6101565,30.1285714 34.4985109,27.1836735 32.4888889,24.4653061 L21.7709049,14.6112245 L21.7709049,0 L0,0 Z" id="r-foot"></path>
                    <path d="M51.9152348,0 L51.9152348,24.4653061 C51.9794076,25.1292882 52.0910533,25.5823495 52.2501718,25.8244898 C52.4092904,26.0666301 52.7442274,26.2931607 53.2549828,26.5040816 L78.0403207,36.6979592 C80.7198167,37.6040816 82.95273,36.4714286 84.7390607,33.3 C86.5253914,30.1285714 86.4137457,27.1836735 84.4041237,24.4653061 L73.6861397,14.6112245 L73.6861397,0 L51.9152348,0 Z" id="l-foot" transform="translate(68.957617, 18.500000) scale(-1, 1) translate(-68.957617, -18.500000) "></path>
                </g>
                <g id="eyes" transform="translate(79.000000, 159.000000)" fill="#6E6C7E">
                    <g id="eye">
                        <path d="M9.74275079,2.74951185 L15.4328924,11.9478332 C15.8317378,12.5925813 15.8317378,13.4074187 15.4328924,14.0521668 L9.74275079,23.2504881 C9.16165512,24.1898505 7.92908037,24.480283 6.98971803,23.8991873 C6.72614293,23.7361381 6.50406812,23.5140632 6.34101885,23.2504881 L0.650877239,14.0521668 C0.252031868,13.4074187 0.252031868,12.5925813 0.650877239,11.9478332 L6.34101885,2.74951185 C6.92211452,1.81014952 8.15468927,1.519717 9.0940516,2.10081267 C9.3576267,2.26386194 9.57970151,2.48593676 9.74275079,2.74951185 Z" id="r-eye-outside"></path>
                    </g>
                    <g id="eye" transform="translate(47.916230, 0.000000)">
                        <path d="M9.74275079,2.74951185 L15.4328924,11.9478332 C15.8317378,12.5925813 15.8317378,13.4074187 15.4328924,14.0521668 L9.74275079,23.2504881 C9.16165512,24.1898505 7.92908037,24.480283 6.98971803,23.8991873 C6.72614293,23.7361381 6.50406812,23.5140632 6.34101885,23.2504881 L0.650877239,14.0521668 C0.252031868,13.4074187 0.252031868,12.5925813 0.650877239,11.9478332 L6.34101885,2.74951185 C6.92211452,1.81014952 8.15468927,1.519717 9.0940516,2.10081267 C9.3576267,2.26386194 9.57970151,2.48593676 9.74275079,2.74951185 Z" id="l-eye-outside"></path>
                    </g>
                </g>
                <path d="M97.4742055,12 C97.4742055,12 110.037584,15.3963485 113.911578,19.4034815 C113.911578,19.4034815 121.37511,11.7123194 124.710781,12.7991724 C128.046989,13.8860254 127.202203,30.3020675 125.541613,30.2253169 C123.881023,30.149103 115.626913,27.0989373 114.608232,25.9680735 C114.608232,25.9680735 108.025447,35.0230348 100.717026,35 C100.717026,35 92.8058756,26.0974224 97.4742055,12 L97.4742055,12 Z" id="Path" fill="#6E6C7E"></path>
            </g>
        </g>
    </g>
</svg>