<?xml version="1.0" encoding="UTF-8"?>
<svg id="footer" width="1024px" height="126px" viewBox="0 0 1024 126" version="1.1" xmlns="http://www.w3.org/2000/svg"
    xmlns:xlink="http://www.w3.org/1999/xlink">
    <defs>
        <style>
            * {
                --ctp-mocha-overlay0: #6c7086;
            }

            .stroke {
                stroke: var(--ctp-mocha-overlay0);
                stroke-width: 1.5;
            }

            .fill {
                fill: var(--ctp-mocha-overlay0);
            }
        </style>
    </defs>
    <g fill="none" transform="translate(0.000000, 1.000000)">
        <g id='edge' class="stroke">
            <line x1="827.5" y1="107" x2="1024" y2="107" />
            <line x1="0" y1="107" x2="726.5" y2="107" />
        </g>
        <g id="sassy" transform="translate(726.000000, 0.000000)">
            <g id="body" class="stroke">
                <path
                    d="M50.2724989,107 L90.4301107,107 C97.5759513,106.200747 101.098549,105.001867 100.997903,103.403361 C100.897258,101.804855 100.092092,98.3081232 98.5824078,92.9131653 C87.8133239,71.3333333 79.3590899,54.5490196 73.2197056,42.5602241 C67.0803214,30.5714286 59.6828666,16.7343604 51.0273412,1.04901961 C50.7254043,0.349673203 50.4737902,0 50.2724989,0 C50.0712076,0 49.7692707,0.349673203 49.3666881,1.04901961 C44.5356972,9.84080299 38.7485727,20.9304388 32.0053146,34.3179272 C25.2620565,47.7054155 15.3987834,67.2371615 2.41549544,92.9131653 C0.805165148,98.10831 0,101.654995 0,103.553221 C0,105.451447 4.22711703,106.600373 12.6813511,107 L50.2724989,107 Z" />
            </g>
            <g id="feet" class="stroke" transform="translate(31.000000, 107.000000)">
                <path id="r-foot"
                    d="M0,0 L0,11.2408163 C0.0291016057,11.5458892 0.0797316171,11.7540525 0.151890034,11.8653061 C0.224048452,11.9765598 0.375938486,12.0806414 0.607560137,12.177551 L11.8474227,16.8612245 C13.062543,17.277551 14.0751432,16.7571429 14.8852234,15.3 C15.6953036,13.8428571 15.6446735,12.4897959 14.7333333,11.2408163 L9.87285223,6.71326531 L9.87285223,0 L0,0 Z">
                    <animate attributeName="d" dur="2s" begin="1s" repeatCount="indefinite" values="
                        M0,0 L0,11.2408163 C0.0291016057,11.5458892 0.0797316171,11.7540525 0.151890034,11.8653061 C0.224048452,11.9765598 0.375938486,12.0806414 0.607560137,12.177551 L11.8474227,16.8612245 C13.062543,17.277551 14.0751432,16.7571429 14.8852234,15.3 C15.6953036,13.8428571 15.6446735,12.4897959 14.7333333,11.2408163 L9.87285223,6.71326531 L9.87285223,0 L0,0 Z;

                        M1,0 L0,11.2408163 C0.0291016057,11.5458892 0.0797316171,11.7540525 0.151890034,11.8653061 C0.224048452,11.9765598 0.375938486,12.0806414 0.607560137,12.177551 L11.8474227,16.8612245 C13.062543,17.277551 14.0751432,16.7571429 14.8852234,15.3 C15.6953036,13.8428571 15.6446735,12.4897959 14.7333333,11.2408163 L9.87285223,6.71326531 L10.8728522,0 L1,0 Z;

                        M0,0 L0,11.2408163 C0.0291016057,11.5458892 0.0797316171,11.7540525 0.151890034,11.8653061 C0.224048452,11.9765598 0.375938486,12.0806414 0.607560137,12.177551 L11.8474227,16.8612245 C13.062543,17.277551 14.0751432,16.7571429 14.8852234,15.3 C15.6953036,13.8428571 15.6446735,12.4897959 14.7333333,11.2408163 L9.87285223,6.71326531 L9.87285223,0 L0,0 Z;
                        " />
                    <animateTransform attributeName="transform" attributeType="XML" type="translate"
                        values="0 0; -1 0; 0 0" dur="2s" begin="1s" repeatCount="indefinite" />
                </path>
                <path id="l-foot"
                    d="M23.5429553,0 L23.5429553,11.2408163 C23.5720569,11.5458892 23.6226869,11.7540525 23.6948454,11.8653061 C23.7670038,11.9765598 23.9188938,12.0806414 24.1505155,12.177551 L35.390378,16.8612245 C36.6054983,17.277551 37.6180985,16.7571429 38.4281787,15.3 C39.2382589,13.8428571 39.1876289,12.4897959 38.2762887,11.2408163 L33.4158076,6.71326531 L33.4158076,0 L23.5429553,0 Z"
                    transform="translate(31.271478, 8.500000) scale(-1, 1) translate(-31.271478, -8.500000) ">
                    <animate attributeName="d" dur="2s" repeatCount="indefinite" values="
                        M23.5429553,0 L23.5429553,11.2408163 C23.5720569,11.5458892 23.6226869,11.7540525 23.6948454,11.8653061 C23.7670038,11.9765598 23.9188938,12.0806414 24.1505155,12.177551 L35.390378,16.8612245 C36.6054983,17.277551 37.6180985,16.7571429 38.4281787,15.3 C39.2382589,13.8428571 39.1876289,12.4897959 38.2762887,11.2408163 L33.4158076,6.71326531 L33.4158076,0 L23.5429553,0 Z;

                        M23.5429553,0 L24.5429553,11.2408163 C24.5720569,11.5458892 24.6226869,11.7540525 24.6948454,11.8653061 C24.7670038,11.9765598 24.9188938,12.0806414 25.1505155,12.177551 L36.390378,16.8612245 C37.6054983,17.277551 38.6180985,16.7571429 39.4281787,15.3 C40.2382589,13.8428571 40.1876289,12.4897959 39.2762887,11.2408163 L34.4158076,6.71326531 L33.4158076,0 L23.5429553,0 Z;

                        M23.5429553,0 L23.5429553,11.2408163 C23.5720569,11.5458892 23.6226869,11.7540525 23.6948454,11.8653061 C23.7670038,11.9765598 23.9188938,12.0806414 24.1505155,12.177551 L35.390378,16.8612245 C36.6054983,17.277551 37.6180985,16.7571429 38.4281787,15.3 C39.2382589,13.8428571 39.1876289,12.4897959 38.2762887,11.2408163 L33.4158076,6.71326531 L33.4158076,0 L23.5429553,0 Z;
                        " />
                </path>
            </g>
            <g id="eyes" class="fill" transform="translate(35.000000, 71.000000)">
                <path id="r-eye" transform-origin="50% 7.61527939"
                    d="M5.35341227,2.81467021 L6.65743446,4.96181019 C7.04485684,5.59972118 7.04485684,6.40027882 6.65743446,7.03818981 L5.35341227,9.18532979 C4.78003588,10.1294237 3.54988315,10.4299496 2.60578925,9.8565732 C2.33141444,9.68993719 2.10118185,9.4597046 1.93454584,9.18532979 L0.630523653,7.03818981 C0.243101276,6.40027882 0.243101276,5.59972118 0.630523653,4.96181019 L1.93454584,2.81467021 C2.50792224,1.87057631 3.73807497,1.5700504 4.68216886,2.1434268 C4.95654368,2.31006281 5.18677626,2.5402954 5.35341227,2.81467021 Z">
                    <animateTransform id="r-blink" attributeName="transform" attributeType="XML" type="scale"
                        begin="3s;r-blink.end+5s" dur="0.15s" fill="remove" repeatCount="1" values="1 1; 1 0; 1 1;" />
                </path>
                <g transform="translate(21.712042, 0.000000)">
                    <path id="l-eye" transform-origin="50% 7.61527939"
                        d="M5.35341227,2.81467021 L6.65743446,4.96181019 C7.04485684,5.59972118 7.04485684,6.40027882 6.65743446,7.03818981 L5.35341227,9.18532979 C4.78003588,10.1294237 3.54988315,10.4299496 2.60578925,9.8565732 C2.33141444,9.68993719 2.10118185,9.4597046 1.93454584,9.18532979 L0.630523653,7.03818981 C0.243101276,6.40027882 0.243101276,5.59972118 0.630523653,4.96181019 L1.93454584,2.81467021 C2.50792224,1.87057631 3.73807497,1.5700504 4.68216886,2.1434268 C4.95654368,2.31006281 5.18677626,2.5402954 5.35341227,2.81467021 Z">
                        <animateTransform id="l-blink" attributeName="transform" attributeType="XML" type="scale"
                            begin="3s;l-blink.end+5s" dur="0.15s" fill="remove" repeatCount="1"
                            values="1 1; 1 0; 1 1;" />
                    </path>
                </g>
            </g>
            <g id="bow-tie" class="fill">
                <path
                    d="M43.6657702,6 C43.6657702,6 49.339554,7.47667325 51.0890999,9.218905 C51.0890999,9.218905 54.459727,5.87492148 55.9661592,6.34746626 C57.4728339,6.82001103 57.0913175,13.9574206 56.3413736,13.9240508 C55.5914297,13.8909143 51.8637673,12.5647554 51.4037176,12.0730754 C51.4037176,12.0730754 48.4308469,16.0100151 45.1302696,16 C45.1302696,16 41.5574922,12.1293141 43.6657702,6 L43.6657702,6 Z" />
            </g>
        </g>
    </g>
</svg>