<?xml version="1.0" encoding="UTF-8"?>
<svg width="1024px" height="1024px" viewBox="0 0 1024 1024" version="1.1" xmlns="http://www.w3.org/2000/svg" xmlns:xlink="http://www.w3.org/1999/xlink">
    <title>logo-rounded</title>
    <defs>
        <rect id="path-1" x="0" y="0" width="1024" height="1024" rx="61.4399986"></rect>
        <radialGradient cx="50%" cy="50%" fx="50%" fy="50%" r="60.3095799%" gradientTransform="translate(0.500000,0.500000),rotate(-90.000000),scale(1.000000,1.520433),translate(-0.500000,-0.500000)" id="radialGradient-3">
            <stop stop-color="#F5E0DC" offset="0%"></stop>
            <stop stop-color="#8F848A" offset="19.4661639%"></stop>
            <stop stop-color="#5D5761" offset="47.7404529%"></stop>
            <stop stop-color="#33313F" offset="75.545098%"></stop>
            <stop stop-color="#252534" offset="88.2357897%"></stop>
            <stop stop-color="#1E1E2E" offset="99.9945367%"></stop>
        </radialGradient>
        <radialGradient cx="50%" cy="116.036684%" fx="50%" fy="116.036684%" r="118.221399%" gradientTransform="translate(0.500000,1.160367),scale(0.274866,1.000000),rotate(-90.000000),scale(1.000000,1.588155),translate(-0.500000,-1.160367)" id="radialGradient-4">
            <stop stop-color="#181825" offset="0.0163898601%"></stop>
            <stop stop-color="#181825" offset="23.1807255%"></stop>
            <stop stop-color="#F5C2E7" stop-opacity="0.625" offset="51.991368%"></stop>
            <stop stop-color="#B4BEFE" stop-opacity="0.625" offset="78.3686222%"></stop>
            <stop stop-color="#94E2D5" stop-opacity="0.625" offset="85.4903513%"></stop>
            <stop stop-color="#CDD3DE" stop-opacity="0.625" offset="93.3505251%"></stop>
            <stop stop-color="#CDD3DE" stop-opacity="0.625" offset="100%"></stop>
        </radialGradient>
        <radialGradient cx="50%" cy="100%" fx="50%" fy="100%" r="107.765668%" gradientTransform="translate(0.500000,1.000000),scale(0.274866,1.000000),rotate(-90.000000),scale(1.000000,1.690731),translate(-0.500000,-1.000000)" id="radialGradient-5">
            <stop stop-color="#FFFFFF" stop-opacity="0" offset="0%"></stop>
            <stop stop-color="#E9F9F6" stop-opacity="0.515051355" offset="48.4991252%"></stop>
            <stop stop-color="#94E2D5" stop-opacity="0.485112544" offset="100%"></stop>
        </radialGradient>
        <filter x="-12.8%" y="-46.4%" width="125.5%" height="192.9%" filterUnits="objectBoundingBox" id="filter-6">
            <feGaussianBlur stdDeviation="50" in="SourceGraphic"></feGaussianBlur>
        </filter>
        <filter x="-9.5%" y="-10.7%" width="118.9%" height="121.3%" filterUnits="objectBoundingBox" id="filter-7">
            <feGaussianBlur stdDeviation="6" in="SourceGraphic"></feGaussianBlur>
        </filter>
        <filter x="-9.5%" y="-10.7%" width="118.9%" height="121.3%" filterUnits="objectBoundingBox" id="filter-8">
            <feGaussianBlur stdDeviation="6" in="SourceGraphic"></feGaussianBlur>
        </filter>
        <linearGradient x1="50%" y1="0%" x2="50%" y2="100%" id="linearGradient-9">
            <stop stop-color="#313244" offset="0%"></stop>
            <stop stop-color="#181825" offset="100%"></stop>
        </linearGradient>
        <filter x="-19.5%" y="-18.3%" width="139.0%" height="136.5%" filterUnits="objectBoundingBox" id="filter-10">
            <feGaussianBlur stdDeviation="39" in="SourceGraphic"></feGaussianBlur>
        </filter>
    </defs>
    <g id="Page-1" stroke="none" stroke-width="1" fill="none" fill-rule="evenodd">
        <g id="logo-rounded">
            <mask id="mask-2" fill="white">
                <use xlink:href="#path-1"></use>
            </mask>
            <g id="Mask"></g>
            <g id="logo" mask="url(#mask-2)">
                <g transform="translate(-75.657588, 0.000000)">
                    <g id="scene">
                        <rect id="sky" fill="url(#radialGradient-3)" x="75.6575875" y="0" width="1024" height="1024"></rect>
                        <path d="M120.657588,1024 C209.990921,852.666667 365.990921,767 588.657588,767 C811.324254,767 966.990921,852.666667 1055.65759,1024 L120.657588,1024 Z" id="floor" fill="url(#radialGradient-4)"></path>
                        <path d="M0,1024 C112.274968,808.666667 308.337224,701 588.18677,701 C868.036316,701 1063.67964,808.666667 1175.11673,1024 L0,1024 Z" id="glow" fill="url(#radialGradient-5)" opacity="0.909853981" filter="url(#filter-6)"></path>
                    </g>
                    <g id="sassy" transform="translate(252.657588, 101.000000)">
                        <g id="shade" transform="translate(109.000000, 765.000000)" fill="#11111B">
                            <polygon id="Path" fill-opacity="0.351726399" filter="url(#filter-7)" points="102.556818 3.04894998e-14 55.0568182 117.291045 9.50467095e-16 169 123.068182 169 190 42.880597"></polygon>
                            <polygon id="Path" fill-opacity="0.35003278" filter="url(#filter-8)" transform="translate(358.000000, 84.500000) scale(-1, 1) translate(-358.000000, -84.500000) " points="365.556818 3.04894998e-14 318.056818 117.291045 263 169 386.068182 169 453 42.880597"></polygon>
                        </g>
                        <g id="body">
                            <path d="M333,714 L599,714 C646.333333,708.666667 669.666667,700.666667 669,690 C668.333333,679.333333 663,656 653,620 C581.666667,476 525.666667,364 485,284 C444.333333,204 395.333333,111.666667 338,7 C336,2.33333333 334.333333,0 333,0 C331.666667,0 329.666667,2.33333333 327,7 C295,65.6666667 256.666667,139.666667 212,229 C167.333333,318.333333 102,448.666667 16,620 C5.33333333,654.666667 0,678.333333 0,691 C0,703.666667 28,711.333333 84,714 L333,714 Z" fill="url(#linearGradient-9)"></path>
                            <path d="M332.953782,714 L571.757703,714 C614.251634,709.211951 635.199346,702.029879 634.60084,692.453782 C634.002334,682.877684 629.214286,661.929972 620.236695,629.610644 C556.196545,500.333333 505.922035,399.784314 469.413165,327.963585 C432.904295,256.142857 388.914099,173.249767 337.442577,79.2843137 C335.647059,75.0947712 334.150794,73 332.953782,73 C331.756769,73 329.961251,75.0947712 327.567227,79.2843137 C298.838936,131.952848 264.424837,198.387021 224.32493,278.586835 C184.225023,358.786648 125.571429,475.794585 48.3641457,629.610644 C38.7880486,660.73296 34,681.979925 34,693.351541 C34,704.723156 59.1372549,711.605976 109.411765,714 L332.953782,714 Z" fill="#11111B" filter="url(#filter-10)"></path>
                        </g>
                        <g id="feet" transform="translate(204.000000, 714.000000)" fill="#11111B">
                            <path d="M0,0 L0,72 C0.191596544,73.9540615 0.524929878,75.2873948 1,76 C1.47507012,76.7126052 2.47507012,77.3792719 4,78 L78,108 C86,110.666667 92.6666667,107.333333 98,98 C103.333333,88.6666667 103,80 97,72 L65,43 L65,0 L0,0 Z" id="r-foot"></path>
                            <path d="M155,0 L155,72 C155.191597,73.9540615 155.52493,75.2873948 156,76 C156.47507,76.7126052 157.47507,77.3792719 159,78 L233,108 C241,110.666667 247.666667,107.333333 253,98 C258.333333,88.6666667 258,80 252,72 L220,43 L220,0 L155,0 Z" id="l-foot" transform="translate(205.882353, 54.444444) scale(-1, 1) translate(-205.882353, -54.444444) "></path>
                        </g>
                        <g id="eyes" transform="translate(237.000000, 475.000000)">
                            <g id="eye">
                                <path d="M25.6972338,2.72264583 L47.3404576,37.4419841 C47.744146,38.0895675 47.744146,38.9104325 47.3404576,39.5580159 L25.6972338,74.2773542 C25.1129077,75.2147105 23.8793405,75.5008981 22.9419841,74.9165721 C22.682919,74.7550769 22.4642614,74.5364194 22.3027662,74.2773542 L0.65954235,39.5580159 C0.255854037,38.9104325 0.255854037,38.0895675 0.65954235,37.4419841 L22.3027662,2.72264583 C22.8870923,1.78528951 24.1206595,1.4991019 25.0580159,2.08342792 C25.317081,2.24492311 25.5357386,2.46358064 25.6972338,2.72264583 Z" id="r-eye-outside" fill="#F5E0DC"></path>
                                <path d="M25.2769429,9.55900868 L43.4903006,37.40524 C43.9252761,38.07027 43.9252761,38.92973 43.4903006,39.59476 L25.2769429,67.4409913 C24.6723237,68.365388 23.4328113,68.6246189 22.5084146,68.0199996 C22.2775448,67.8689949 22.080411,67.6718611 21.9294063,67.4409913 L3.71604864,39.59476 C3.2810731,38.92973 3.2810731,38.07027 3.71604864,37.40524 L21.9294063,9.55900868 C22.5340255,8.63461195 23.7735379,8.37538111 24.6979346,8.98000038 C24.9288044,9.13100513 25.1259382,9.32813894 25.2769429,9.55900868 Z" id="r-eye-inside" fill="#B4BEFE"></path>
                            </g>
                            <g id="eye" transform="translate(143.000000, 0.000000)">
                                <path d="M25.6972338,2.72264583 L47.3404576,37.4419841 C47.744146,38.0895675 47.744146,38.9104325 47.3404576,39.5580159 L25.6972338,74.2773542 C25.1129077,75.2147105 23.8793405,75.5008981 22.9419841,74.9165721 C22.682919,74.7550769 22.4642614,74.5364194 22.3027662,74.2773542 L0.65954235,39.5580159 C0.255854037,38.9104325 0.255854037,38.0895675 0.65954235,37.4419841 L22.3027662,2.72264583 C22.8870923,1.78528951 24.1206595,1.4991019 25.0580159,2.08342792 C25.317081,2.24492311 25.5357386,2.46358064 25.6972338,2.72264583 Z" id="l-eye-outside" fill="#F5E0DC"></path>
                                <path d="M25.2769429,9.55900868 L43.4903006,37.40524 C43.9252761,38.07027 43.9252761,38.92973 43.4903006,39.59476 L25.2769429,67.4409913 C24.6723237,68.365388 23.4328113,68.6246189 22.5084146,68.0199996 C22.2775448,67.8689949 22.080411,67.6718611 21.9294063,67.4409913 L3.71604864,39.59476 C3.2810731,38.92973 3.2810731,38.07027 3.71604864,37.40524 L21.9294063,9.55900868 C22.5340255,8.63461195 23.7735379,8.37538111 24.6979346,8.98000038 C24.9288044,9.13100513 25.1259382,9.32813894 25.2769429,9.55900868 Z" id="l-eye-inside" fill="#B4BEFE"></path>
                            </g>
                        </g>
                        <path d="M292.563828,35.3610821 C292.563828,35.3610821 329.70804,45.4024602 341.161686,57.249636 C341.161686,57.249636 363.227963,34.5105481 373.090031,37.7238526 C382.953686,40.9371571 380.456036,89.4715425 375.546424,89.2446276 C370.636812,89.0192996 346.233153,80.0014185 343.221374,76.657995 C343.221374,76.657995 323.759063,103.429185 302.151376,103.361082 C302.151376,103.361082 278.761693,77.0404179 292.563828,35.3610821 L292.563828,35.3610821 Z" id="Path" fill="#F5C2E7"></path>
                        <g id="ribbon" transform="translate(551.000000, 613.000000)">
                            <polygon id="Path-3" fill="#CBA6F7" points="16.0577201 78 7.45140081e-16 122.222524 21.0851371 113.408412 31.5151515 134 52 78"></polygon>
                            <polygon id="Path-2" fill="#F5C2E7" points="73.7994723 76 94 119.633729 71.5804749 111.839262 62.8575198 134 36 76"></polygon>
                            <circle id="Oval" fill="#F5C2E7" cx="44" cy="44" r="44"></circle>
                            <path d="M35.5664996,57.8649733 C36.184786,60.1787851 36.1169379,62.3364733 35.4783798,64.2905309 C35.4074289,64.5075554 35.3292381,64.7222778 35.244428,64.9344889 C35.1596179,65.1462813 35.0677747,65.3557717 34.9693123,65.5625415 C34.4767931,66.5963901 33.8158947,67.5641059 33.0064753,68.4573176 C30.5374667,71.1825761 27.0877636,72.2130763 25.6085511,71.344769 C24.011225,70.4080268 24.811336,66.5656258 27.6739877,63.5042618 C30.7536291,60.2103866 35.1846472,58.0926711 35.1846472,58.0926711 L35.177821,58.0792771 C35.3054499,58.0097958 35.4351473,57.9382217 35.5664996,57.8649733 Z M70.667544,18.951664 C68.7431818,11.3158338 56.2289324,8.80571627 44.3848897,13.0627031 C37.3363419,15.5964694 29.705707,19.5728103 24.2191132,24.7648652 C17.6955606,30.9382391 16.6552922,36.311322 17.0841004,38.5564897 C18.5966164,46.4786165 29.3255095,51.6568587 33.7360491,55.4988412 L33.7360491,55.5220714 C32.4355584,56.1697964 22.9167608,61.0435346 20.6891508,66.0260991 C18.3386695,71.2826125 21.0633496,75.054695 22.8671159,75.562411 C28.4561024,77.135577 34.1913346,74.3058873 37.2734583,69.6546148 C40.247811,65.1659538 40.0002069,59.3697044 38.7075766,56.4864387 C40.4906575,56.0105335 42.5693327,55.797276 45.2110644,56.1095234 C52.6654597,56.9903876 54.1281238,61.6996309 53.8484573,63.6700125 C53.5689976,65.6410219 52.0053887,66.7246794 51.4826688,67.0517858 C50.9597421,67.3791014 50.8002577,67.4923225 50.8443176,67.7355071 C50.9076149,68.0891922 51.149634,68.0760075 51.5954042,67.9996199 C52.208933,67.8949793 55.5097013,66.3965266 55.6507757,62.7585933 C55.8305317,58.1397594 51.455571,52.9730276 43.7090979,53.1080139 C40.5187897,53.1636827 38.5127202,53.470698 37.0637084,54.0162939 C36.956558,53.892818 36.847546,53.76997 36.7348106,53.6483777 C31.9457283,48.4789252 23.0925867,44.8221565 23.4680266,37.872559 C23.6045502,35.3461176 24.4725093,28.6932807 40.4794874,20.6236107 C53.5919584,14.0130486 64.0889683,15.8321199 65.9030773,19.8637111 C68.4943366,25.6233362 60.2929917,36.3284831 46.6755902,37.872559 C41.4874867,38.4610575 38.7557736,36.4266359 38.0762584,35.6690383 C37.3607506,34.8714681 37.2542209,34.8354717 36.9871724,34.9851077 C36.5519517,35.2289202 36.827688,35.9331511 36.9871724,36.352969 C37.3936404,37.4234418 39.0621243,39.3218307 41.9065727,40.266107 C44.4086779,41.096953 50.5001127,41.553395 57.8668019,38.6705479 C66.1171711,35.4415498 72.5598438,26.4596235 70.667544,18.951664 L70.667544,18.951664 Z" id="sass" fill="#FFFFFF"></path>
                        </g>
                    </g>
                </g>
            </g>
        </g>
    </g>
</svg>